<svg width="336" height="122" viewBox="0 0 336 122" fill="none" xmlns="http://www.w3.org/2000/svg">
<path d="M60.0266 5.54545H56.3533V16.5227H56.1999L48.6658 5.54545H45.4272V23H49.1175V12.0142H49.2454L56.8391 23H60.0266V5.54545ZM68.9734 23.2557C72.212 23.2557 74.3938 21.679 74.9052 19.25L71.5472 19.0284C71.1808 20.0256 70.2433 20.5455 69.033 20.5455C67.2177 20.5455 66.0671 19.3438 66.0671 17.392V17.3835H74.9819V16.3864C74.9819 11.9375 72.2887 9.73864 68.8285 9.73864C64.9762 9.73864 62.479 12.4744 62.479 16.5142C62.479 20.6648 64.9421 23.2557 68.9734 23.2557ZM66.0671 15.1335C66.1438 13.642 67.2773 12.4489 68.8881 12.4489C70.4648 12.4489 71.5558 13.5739 71.5643 15.1335H66.0671ZM80.9819 15.4318C80.9904 13.7443 81.9961 12.7557 83.462 12.7557C84.9194 12.7557 85.7972 13.7102 85.7887 15.3125V23H89.4194V14.6648C89.4194 11.6136 87.6296 9.73864 84.9023 9.73864C82.9592 9.73864 81.5529 10.6932 80.9648 12.2188H80.8114V9.90909H77.3512V23H80.9819V15.4318ZM95.9116 15.4318C95.9201 13.7443 96.9513 12.7557 98.4343 12.7557C99.9087 12.7557 100.778 13.7017 100.77 15.3125V23H104.4V14.6648C104.409 11.5966 102.602 9.73864 99.8746 9.73864C97.8888 9.73864 96.5593 10.6761 95.9627 12.2188H95.8093V5.54545H92.2809V23H95.9116V15.4318ZM115.652 17.4261C115.661 19.1818 114.459 20.1023 113.155 20.1023C111.783 20.1023 110.897 19.1392 110.888 17.5966V9.90909H107.257V18.2443C107.266 21.304 109.056 23.1705 111.689 23.1705C113.658 23.1705 115.073 22.1562 115.661 20.6222H115.797V23H119.283V9.90909H115.652V17.4261ZM122.187 23H125.818V15.142C125.818 13.6932 126.738 12.7301 127.949 12.7301C129.142 12.7301 129.943 13.5483 129.943 14.8352V23H133.463V15.0057C133.463 13.6506 134.238 12.7301 135.559 12.7301C136.718 12.7301 137.588 13.4545 137.588 14.9119V23H141.21V14.196C141.21 11.358 139.522 9.73864 137.085 9.73864C135.167 9.73864 133.676 10.7188 133.139 12.2188H133.002C132.585 10.7017 131.247 9.73864 129.449 9.73864C127.684 9.73864 126.346 10.6761 125.801 12.2188H125.647V9.90909H122.187V23ZM147.811 23.2472C149.745 23.2472 150.998 22.4034 151.637 21.1847H151.74V23H155.183V14.1705C155.183 11.0511 152.541 9.73864 149.626 9.73864C146.49 9.73864 144.427 11.2386 143.924 13.625L147.282 13.8977C147.529 13.0284 148.305 12.3892 149.609 12.3892C150.845 12.3892 151.552 13.0114 151.552 14.0852V14.1364C151.552 14.9801 150.657 15.0909 148.382 15.3125C145.791 15.5511 143.464 16.4205 143.464 19.3438C143.464 21.9347 145.314 23.2472 147.811 23.2472ZM148.85 20.7415C147.734 20.7415 146.933 20.2216 146.933 19.2244C146.933 18.2017 147.777 17.6989 149.055 17.5199C149.848 17.4091 151.143 17.2216 151.578 16.9318V18.321C151.578 19.6932 150.444 20.7415 148.85 20.7415ZM163.554 23H167.185V15.142C167.185 13.6932 168.105 12.7301 169.316 12.7301C170.509 12.7301 171.31 13.5483 171.31 14.8352V23H174.83V15.0057C174.83 13.6506 175.605 12.7301 176.926 12.7301C178.086 12.7301 178.955 13.4545 178.955 14.9119V23H182.577V14.196C182.577 11.358 180.89 9.73864 178.452 9.73864C176.534 9.73864 175.043 10.7188 174.506 12.2188H174.37C173.952 10.7017 172.614 9.73864 170.816 9.73864C169.051 9.73864 167.713 10.6761 167.168 12.2188H167.015V9.90909H163.554V23ZM191.411 23.2557C194.65 23.2557 196.831 21.679 197.343 19.25L193.985 19.0284C193.618 20.0256 192.681 20.5455 191.471 20.5455C189.655 20.5455 188.505 19.3438 188.505 17.392V17.3835H197.419V16.3864C197.419 11.9375 194.726 9.73864 191.266 9.73864C187.414 9.73864 184.917 12.4744 184.917 16.5142C184.917 20.6648 187.38 23.2557 191.411 23.2557ZM188.505 15.1335C188.581 13.642 189.715 12.4489 191.326 12.4489C192.902 12.4489 193.993 13.5739 194.002 15.1335H188.505ZM203.419 15.4318C203.428 13.7443 204.434 12.7557 205.9 12.7557C207.357 12.7557 208.235 13.7102 208.226 15.3125V23H211.857V14.6648C211.857 11.6136 210.067 9.73864 207.34 9.73864C205.397 9.73864 203.99 10.6932 203.402 12.2188H203.249V9.90909H199.789V23H203.419V15.4318ZM225.61 13.642C225.287 11.2301 223.343 9.73864 220.037 9.73864C216.687 9.73864 214.48 11.2898 214.488 13.8125C214.48 15.7727 215.716 17.0426 218.272 17.554L220.539 18.0057C221.681 18.2358 222.201 18.6534 222.218 19.3097C222.201 20.0852 221.358 20.6392 220.088 20.6392C218.792 20.6392 217.931 20.0852 217.71 19.0199L214.139 19.2074C214.48 21.7131 216.61 23.2557 220.079 23.2557C223.471 23.2557 225.9 21.5256 225.909 18.9432C225.9 17.0511 224.664 15.9176 222.125 15.3977L219.755 14.9205C218.537 14.6562 218.085 14.2386 218.093 13.608C218.085 12.8239 218.971 12.3125 220.096 12.3125C221.358 12.3125 222.108 13.0028 222.287 13.8466L225.61 13.642ZM231.928 23.2472C233.863 23.2472 235.115 22.4034 235.755 21.1847H235.857V23H239.3V14.1705C239.3 11.0511 236.658 9.73864 233.743 9.73864C230.607 9.73864 228.544 11.2386 228.042 13.625L231.4 13.8977C231.647 13.0284 232.422 12.3892 233.726 12.3892C234.962 12.3892 235.669 13.0114 235.669 14.0852V14.1364C235.669 14.9801 234.775 15.0909 232.499 15.3125C229.908 15.5511 227.581 16.4205 227.581 19.3438C227.581 21.9347 229.431 23.2472 231.928 23.2472ZM232.968 20.7415C231.851 20.7415 231.05 20.2216 231.05 19.2244C231.05 18.2017 231.894 17.6989 233.172 17.5199C233.965 17.4091 235.26 17.2216 235.695 16.9318V18.321C235.695 19.6932 234.561 20.7415 232.968 20.7415ZM248.015 28.1818C251.756 28.1818 254.415 26.4773 254.415 23.1278V9.90909H250.81V12.108H250.674C250.188 11.0426 249.123 9.73864 246.932 9.73864C244.06 9.73864 241.631 11.9716 241.631 16.429C241.631 20.7841 243.992 22.8125 246.941 22.8125C249.029 22.8125 250.196 21.7642 250.674 20.6818H250.827V23.0767C250.827 24.875 249.676 25.5739 248.1 25.5739C246.498 25.5739 245.688 24.875 245.39 24.0824L242.032 24.5341C242.466 26.5966 244.486 28.1818 248.015 28.1818ZM248.091 20.0852C246.31 20.0852 245.338 18.6705 245.338 16.4119C245.338 14.1875 246.293 12.6278 248.091 12.6278C249.855 12.6278 250.844 14.1193 250.844 16.4119C250.844 18.7216 249.838 20.0852 248.091 20.0852ZM263.27 23.2557C266.509 23.2557 268.691 21.679 269.202 19.25L265.844 19.0284C265.478 20.0256 264.54 20.5455 263.33 20.5455C261.515 20.5455 260.364 19.3438 260.364 17.392V17.3835H269.279V16.3864C269.279 11.9375 266.586 9.73864 263.125 9.73864C259.273 9.73864 256.776 12.4744 256.776 16.5142C256.776 20.6648 259.239 23.2557 263.27 23.2557ZM260.364 15.1335C260.441 13.642 261.574 12.4489 263.185 12.4489C264.762 12.4489 265.853 13.5739 265.861 15.1335H260.364ZM271.648 23H275.279V15.142C275.279 13.6932 276.199 12.7301 277.409 12.7301C278.603 12.7301 279.404 13.5483 279.404 14.8352V23H282.924V15.0057C282.924 13.6506 283.699 12.7301 285.02 12.7301C286.179 12.7301 287.049 13.4545 287.049 14.9119V23H290.671V14.196C290.671 11.358 288.983 9.73864 286.546 9.73864C284.628 9.73864 283.137 10.7188 282.6 12.2188H282.463C282.046 10.7017 280.708 9.73864 278.909 9.73864C277.145 9.73864 275.807 10.6761 275.262 12.2188H275.108V9.90909H271.648V23ZM107.973 52.2557C111.212 52.2557 113.394 50.679 113.905 48.25L110.547 48.0284C110.181 49.0256 109.243 49.5455 108.033 49.5455C106.218 49.5455 105.067 48.3438 105.067 46.392V46.3835H113.982V45.3864C113.982 40.9375 111.289 38.7386 107.828 38.7386C103.976 38.7386 101.479 41.4744 101.479 45.5142C101.479 49.6648 103.942 52.2557 107.973 52.2557ZM105.067 44.1335C105.144 42.642 106.277 41.4489 107.888 41.4489C109.465 41.4489 110.556 42.5739 110.564 44.1335H105.067ZM119.982 44.4318C119.99 42.7443 120.996 41.7557 122.462 41.7557C123.919 41.7557 124.797 42.7102 124.789 44.3125V52H128.419V43.6648C128.419 40.6136 126.63 38.7386 123.902 38.7386C121.959 38.7386 120.553 39.6932 119.965 41.2188H119.811V38.9091H116.351V52H119.982V44.4318ZM137.196 52.2557C140.681 52.2557 142.872 50.2102 143.042 47.2017H139.616C139.403 48.5994 138.483 49.3835 137.238 49.3835C135.542 49.3835 134.443 47.9602 134.443 45.4545C134.443 42.983 135.551 41.5682 137.238 41.5682C138.568 41.5682 139.42 42.446 139.616 43.75H143.042C142.889 40.7244 140.596 38.7386 137.179 38.7386C133.207 38.7386 130.752 41.4915 130.752 45.5057C130.752 49.4858 133.164 52.2557 137.196 52.2557ZM151.282 52.2557C155.253 52.2557 157.725 49.5369 157.725 45.5057C157.725 41.4489 155.253 38.7386 151.282 38.7386C147.31 38.7386 144.838 41.4489 144.838 45.5057C144.838 49.5369 147.31 52.2557 151.282 52.2557ZM151.299 49.4432C149.466 49.4432 148.529 47.7642 148.529 45.4801C148.529 43.196 149.466 41.5085 151.299 41.5085C153.097 41.5085 154.034 43.196 154.034 45.4801C154.034 47.7642 153.097 49.4432 151.299 49.4432ZM163.716 44.4318C163.725 42.7443 164.73 41.7557 166.196 41.7557C167.654 41.7557 168.532 42.7102 168.523 44.3125V52H172.154V43.6648C172.154 40.6136 170.364 38.7386 167.637 38.7386C165.694 38.7386 164.287 39.6932 163.699 41.2188H163.546V38.9091H160.086V52H163.716V44.4318ZM181.978 38.9091H179.515V35.7727H175.885V38.9091H174.095V41.6364H175.885V48.4545C175.868 51.0199 177.615 52.2898 180.248 52.179C181.186 52.1449 181.85 51.9574 182.217 51.8381L181.646 49.1364C181.467 49.1705 181.083 49.2557 180.743 49.2557C180.018 49.2557 179.515 48.983 179.515 47.9773V41.6364H181.978V38.9091ZM184.343 52H187.974V44.5938C187.974 42.983 189.15 41.875 190.752 41.875C191.255 41.875 191.946 41.9602 192.287 42.071V38.8494C191.963 38.7727 191.511 38.7216 191.145 38.7216C189.679 38.7216 188.477 39.5739 188 41.1932H187.863V38.9091H184.343V52ZM197.522 52.2472C199.456 52.2472 200.709 51.4034 201.348 50.1847H201.451V52H204.894V43.1705C204.894 40.0511 202.252 38.7386 199.337 38.7386C196.201 38.7386 194.138 40.2386 193.635 42.625L196.993 42.8977C197.24 42.0284 198.016 41.3892 199.32 41.3892C200.556 41.3892 201.263 42.0114 201.263 43.0852V43.1364C201.263 43.9801 200.368 44.0909 198.093 44.3125C195.502 44.5511 193.175 45.4205 193.175 48.3438C193.175 50.9347 195.025 52.2472 197.522 52.2472ZM198.561 49.7415C197.445 49.7415 196.644 49.2216 196.644 48.2244C196.644 47.2017 197.488 46.6989 198.766 46.5199C199.559 46.4091 200.854 46.2216 201.289 45.9318V47.321C201.289 48.6932 200.155 49.7415 198.561 49.7415ZM212.534 52.2131C214.648 52.2131 215.748 50.9943 216.25 49.9034H216.404V52H219.983V34.5455H216.361V41.108H216.25C215.765 40.0426 214.716 38.7386 212.526 38.7386C209.654 38.7386 207.225 40.9716 207.225 45.4716C207.225 49.8523 209.551 52.2131 212.534 52.2131ZM213.685 49.3239C211.904 49.3239 210.932 47.7386 210.932 45.4545C210.932 43.1875 211.887 41.6278 213.685 41.6278C215.449 41.6278 216.438 43.1193 216.438 45.4545C216.438 47.7898 215.432 49.3239 213.685 49.3239ZM226.701 52.2472C228.636 52.2472 229.889 51.4034 230.528 50.1847H230.63V52H234.074V43.1705C234.074 40.0511 231.431 38.7386 228.517 38.7386C225.38 38.7386 223.318 40.2386 222.815 42.625L226.173 42.8977C226.42 42.0284 227.196 41.3892 228.5 41.3892C229.735 41.3892 230.443 42.0114 230.443 43.0852V43.1364C230.443 43.9801 229.548 44.0909 227.272 44.3125C224.681 44.5511 222.355 45.4205 222.355 48.3438C222.355 50.9347 224.204 52.2472 226.701 52.2472ZM227.741 49.7415C226.625 49.7415 225.824 49.2216 225.824 48.2244C225.824 47.2017 226.667 46.6989 227.946 46.5199C228.738 46.4091 230.034 46.2216 230.468 45.9318V47.321C230.468 48.6932 229.335 49.7415 227.741 49.7415Z" fill="#343A40"/>
<path d="M51.6172 92C55.1626 92 57.1626 89.7955 57.1626 86.1591C57.1626 82.5455 55.1626 80.3636 51.7763 80.3636H48.0263V92H51.6172ZM49.4354 90.75V81.6136H51.6854C54.4126 81.6136 55.799 83.3409 55.799 86.1591C55.799 89 54.4126 90.75 51.5263 90.75H49.4354ZM59.3445 92H60.6854V83.2727H59.3445V92ZM60.0263 81.8182C60.549 81.8182 60.9808 81.4091 60.9808 80.9091C60.9808 80.4091 60.549 80 60.0263 80C59.5036 80 59.0717 80.4091 59.0717 80.9091C59.0717 81.4091 59.5036 81.8182 60.0263 81.8182ZM66.6641 95.4545C68.755 95.4545 70.4368 94.5 70.4368 92.25V83.2727H69.1413V84.6591H69.005C68.7095 84.2045 68.1641 83.1591 66.4595 83.1591C64.255 83.1591 62.7322 84.9091 62.7322 87.5909C62.7322 90.3182 64.3232 91.8636 66.4368 91.8636C68.1413 91.8636 68.6868 90.8636 68.9822 90.3864H69.0959V92.1591C69.0959 93.6136 68.0732 94.2727 66.6641 94.2727C65.0788 94.2727 64.522 93.4375 64.1641 92.9545L63.0959 93.7045C63.6413 94.6193 64.7152 95.4545 66.6641 95.4545ZM66.6186 90.6591C64.9368 90.6591 64.0732 89.3864 64.0732 87.5682C64.0732 85.7955 64.9141 84.3636 66.6186 84.3636C68.255 84.3636 69.1186 85.6818 69.1186 87.5682C69.1186 89.5 68.2322 90.6591 66.6186 90.6591ZM72.8913 92H74.2322V83.2727H72.8913V92ZM73.5732 81.8182C74.0959 81.8182 74.5277 81.4091 74.5277 80.9091C74.5277 80.4091 74.0959 80 73.5732 80C73.0504 80 72.6186 80.4091 72.6186 80.9091C72.6186 81.4091 73.0504 81.8182 73.5732 81.8182ZM80.4837 83.2727H78.62V81.1818H77.2791V83.2727H75.9609V84.4091H77.2791V89.8636C77.2791 91.3864 78.5064 92.1136 79.6428 92.1136C80.1428 92.1136 80.4609 92.0227 80.6428 91.9545L80.37 90.75C80.2564 90.7727 80.0746 90.8182 79.7791 90.8182C79.1882 90.8182 78.62 90.6364 78.62 89.5V84.4091H80.4837V83.2727ZM86.0661 92.1818C87.8388 92.1818 89.1342 91.2955 89.5433 89.9773L88.2479 89.6136C87.907 90.5227 87.1172 90.9773 86.0661 90.9773C84.4922 90.9773 83.407 89.9602 83.3445 88.0909H89.6797V87.5227C89.6797 84.2727 87.7479 83.1591 85.9297 83.1591C83.5661 83.1591 81.9979 85.0227 81.9979 87.7045C81.9979 90.3864 83.5433 92.1818 86.0661 92.1818ZM83.3445 86.9318C83.4354 85.5739 84.3956 84.3636 85.9297 84.3636C87.3842 84.3636 88.3161 85.4545 88.3161 86.9318H83.3445ZM101.719 88.4318C101.719 90.0682 100.469 90.8182 99.4695 90.8182C98.3558 90.8182 97.5604 90 97.5604 88.7273V83.2727H96.2195V88.8182C96.2195 91.0455 97.4013 92.1136 99.0376 92.1136C100.356 92.1136 101.219 91.4091 101.629 90.5227H101.719V92H103.06V83.2727H101.719V88.4318ZM105.516 92H106.857V86.5455C106.857 85.267 107.789 84.3636 108.835 84.3636C109.852 84.3636 110.562 85.0284 110.562 86.0227V92H111.925V86.3182C111.925 85.1932 112.63 84.3636 113.857 84.3636C114.812 84.3636 115.63 84.8693 115.63 86.1591V92H116.971V86.1591C116.971 84.108 115.869 83.1591 114.312 83.1591C113.062 83.1591 112.147 83.733 111.698 84.6364H111.607C111.175 83.7045 110.414 83.1591 109.266 83.1591C108.13 83.1591 107.289 83.7045 106.925 84.6364H106.812V83.2727H105.516V92ZM127.718 83.2727H125.854V81.1818H124.513V83.2727H123.195V84.4091H124.513V89.8636C124.513 91.3864 125.741 92.1136 126.877 92.1136C127.377 92.1136 127.695 92.0227 127.877 91.9545L127.604 90.75C127.491 90.7727 127.309 90.8182 127.013 90.8182C126.423 90.8182 125.854 90.6364 125.854 89.5V84.4091H127.718V83.2727ZM133.3 92.1818C135.073 92.1818 136.369 91.2955 136.778 89.9773L135.482 89.6136C135.141 90.5227 134.352 90.9773 133.3 90.9773C131.727 90.9773 130.641 89.9602 130.579 88.0909H136.914V87.5227C136.914 84.2727 134.982 83.1591 133.164 83.1591C130.8 83.1591 129.232 85.0227 129.232 87.7045C129.232 90.3864 130.778 92.1818 133.3 92.1818ZM130.579 86.9318C130.67 85.5739 131.63 84.3636 133.164 84.3636C134.619 84.3636 135.55 85.4545 135.55 86.9318H130.579ZM139.719 83.2727H138.174L140.947 87.6364L138.174 92H139.719L141.81 88.6136L143.901 92H145.447L142.629 87.6364L145.447 83.2727H143.901L141.81 86.8409L139.719 83.2727ZM151.156 83.2727H149.292V81.1818H147.951V83.2727H146.633V84.4091H147.951V89.8636C147.951 91.3864 149.178 92.1136 150.315 92.1136C150.815 92.1136 151.133 92.0227 151.315 91.9545L151.042 90.75C150.928 90.7727 150.746 90.8182 150.451 90.8182C149.86 90.8182 149.292 90.6364 149.292 89.5V84.4091H151.156V83.2727ZM156.624 92.1818C158.988 92.1818 160.579 90.3864 160.579 87.6818C160.579 84.9545 158.988 83.1591 156.624 83.1591C154.261 83.1591 152.67 84.9545 152.67 87.6818C152.67 90.3864 154.261 92.1818 156.624 92.1818ZM156.624 90.9773C154.829 90.9773 154.011 89.4318 154.011 87.6818C154.011 85.9318 154.829 84.3636 156.624 84.3636C158.42 84.3636 159.238 85.9318 159.238 87.6818C159.238 89.4318 158.42 90.9773 156.624 90.9773ZM174.421 95.2727V83.2727H173.126V84.6591H172.967C172.671 84.2045 172.148 83.1591 170.444 83.1591C168.239 83.1591 166.717 84.9091 166.717 87.6591C166.717 90.4318 168.239 92.1818 170.421 92.1818C172.103 92.1818 172.671 91.1364 172.967 90.6591H173.08V95.2727H174.421ZM173.103 87.6364C173.103 89.6136 172.217 90.9773 170.603 90.9773C168.921 90.9773 168.058 89.5 168.058 87.6364C168.058 85.7955 168.898 84.3636 170.603 84.3636C172.239 84.3636 173.103 85.6818 173.103 87.6364ZM182.376 88.4318C182.376 90.0682 181.126 90.8182 180.126 90.8182C179.012 90.8182 178.217 90 178.217 88.7273V83.2727H176.876V88.8182C176.876 91.0455 178.058 92.1136 179.694 92.1136C181.012 92.1136 181.876 91.4091 182.285 90.5227H182.376V92H183.717V83.2727H182.376V88.4318ZM189.832 92.1818C191.604 92.1818 192.9 91.2955 193.309 89.9773L192.013 89.6136C191.673 90.5227 190.883 90.9773 189.832 90.9773C188.258 90.9773 187.173 89.9602 187.11 88.0909H193.445V87.5227C193.445 84.2727 191.513 83.1591 189.695 83.1591C187.332 83.1591 185.763 85.0227 185.763 87.7045C185.763 90.3864 187.309 92.1818 189.832 92.1818ZM187.11 86.9318C187.201 85.5739 188.161 84.3636 189.695 84.3636C191.15 84.3636 192.082 85.4545 192.082 86.9318H187.11ZM207.121 83.2727H205.667L203.258 90.2273H203.167L200.758 83.2727H199.303L202.531 92H203.894L207.121 83.2727ZM212.124 92.1818C214.488 92.1818 216.079 90.3864 216.079 87.6818C216.079 84.9545 214.488 83.1591 212.124 83.1591C209.761 83.1591 208.17 84.9545 208.17 87.6818C208.17 90.3864 209.761 92.1818 212.124 92.1818ZM212.124 90.9773C210.329 90.9773 209.511 89.4318 209.511 87.6818C209.511 85.9318 210.329 84.3636 212.124 84.3636C213.92 84.3636 214.738 85.9318 214.738 87.6818C214.738 89.4318 213.92 90.9773 212.124 90.9773ZM221.671 92.1818C223.603 92.1818 224.876 91 225.103 89.4545H223.762C223.512 90.4091 222.717 90.9773 221.671 90.9773C220.08 90.9773 219.058 89.6591 219.058 87.6364C219.058 85.6591 220.103 84.3636 221.671 84.3636C222.853 84.3636 223.558 85.0909 223.762 85.8864H225.103C224.876 84.25 223.489 83.1591 221.648 83.1591C219.285 83.1591 217.717 85.0227 217.717 87.6818C217.717 90.2955 219.217 92.1818 221.671 92.1818ZM230.722 92.1818C232.495 92.1818 233.79 91.2955 234.2 89.9773L232.904 89.6136C232.563 90.5227 231.773 90.9773 230.722 90.9773C229.148 90.9773 228.063 89.9602 228.001 88.0909H234.336V87.5227C234.336 84.2727 232.404 83.1591 230.586 83.1591C228.222 83.1591 226.654 85.0227 226.654 87.7045C226.654 90.3864 228.2 92.1818 230.722 92.1818ZM228.001 86.9318C228.092 85.5739 229.052 84.3636 230.586 84.3636C232.04 84.3636 232.972 85.4545 232.972 86.9318H228.001ZM229.336 82.2273L230.518 80.6364L231.7 82.2273H232.972V82.1364L231.131 79.7727H229.904L228.063 82.1364V82.2273H229.336ZM244.171 92.1818C245.853 92.1818 246.421 91.1364 246.717 90.6591H246.876V92H248.171V80.3636H246.83V84.6591H246.717C246.421 84.2045 245.898 83.1591 244.194 83.1591C241.989 83.1591 240.467 84.9091 240.467 87.6591C240.467 90.4318 241.989 92.1818 244.171 92.1818ZM244.353 90.9773C242.671 90.9773 241.808 89.5 241.808 87.6364C241.808 85.7955 242.648 84.3636 244.353 84.3636C245.989 84.3636 246.853 85.6818 246.853 87.6364C246.853 89.6136 245.967 90.9773 244.353 90.9773ZM254.472 92.1818C256.245 92.1818 257.54 91.2955 257.95 89.9773L256.654 89.6136C256.313 90.5227 255.523 90.9773 254.472 90.9773C252.898 90.9773 251.813 89.9602 251.751 88.0909H258.086V87.5227C258.086 84.2727 256.154 83.1591 254.336 83.1591C251.972 83.1591 250.404 85.0227 250.404 87.7045C250.404 90.3864 251.95 92.1818 254.472 92.1818ZM251.751 86.9318C251.842 85.5739 252.802 84.3636 254.336 84.3636C255.79 84.3636 256.722 85.4545 256.722 86.9318H251.751ZM266.308 85.2273C265.887 83.9886 264.944 83.1591 263.217 83.1591C261.376 83.1591 260.012 84.2045 260.012 85.6818C260.012 86.8864 260.728 87.6932 262.33 88.0682L263.785 88.4091C264.665 88.6136 265.08 89.0341 265.08 89.6364C265.08 90.3864 264.285 91 263.035 91C261.938 91 261.251 90.5284 261.012 89.5909L259.739 89.9091C260.052 91.392 261.273 92.1818 263.058 92.1818C265.086 92.1818 266.467 91.0739 266.467 89.5682C266.467 88.3523 265.705 87.5852 264.148 87.2045L262.853 86.8864C261.819 86.6307 261.353 86.2841 261.353 85.6136C261.353 84.8636 262.148 84.3182 263.217 84.3182C264.387 84.3182 264.87 84.9659 265.103 85.5682L266.308 85.2273ZM272.144 92.1818C273.917 92.1818 275.212 91.2955 275.621 89.9773L274.326 89.6136C273.985 90.5227 273.195 90.9773 272.144 90.9773C270.57 90.9773 269.485 89.9602 269.423 88.0909H275.758V87.5227C275.758 84.2727 273.826 83.1591 272.008 83.1591C269.644 83.1591 268.076 85.0227 268.076 87.7045C268.076 90.3864 269.621 92.1818 272.144 92.1818ZM269.423 86.9318C269.513 85.5739 270.474 84.3636 272.008 84.3636C273.462 84.3636 274.394 85.4545 274.394 86.9318H269.423ZM277.798 83.2727V92.6364C277.798 93.5227 277.434 94.0227 276.616 94.0227H276.366V95.2727H276.638C278.32 95.2727 279.138 94.25 279.138 92.6364V83.2727H277.798ZM278.457 81.8182C278.979 81.8182 279.411 81.4091 279.411 80.9091C279.411 80.4091 278.979 80 278.457 80C277.934 80 277.502 80.4091 277.502 80.9091C277.502 81.4091 277.934 81.8182 278.457 81.8182ZM284.163 92.2045C285.685 92.2045 286.481 91.3864 286.754 90.8182H286.822V92H288.163V86.25C288.163 83.4773 286.049 83.1591 284.935 83.1591C283.617 83.1591 282.117 83.6136 281.435 85.2045L282.708 85.6591C283.004 85.0227 283.702 84.3409 284.981 84.3409C286.214 84.3409 286.822 84.9943 286.822 86.1136V86.1591C286.822 86.8068 286.163 86.75 284.572 86.9545C282.952 87.1648 281.185 87.5227 281.185 89.5227C281.185 91.2273 282.504 92.2045 284.163 92.2045ZM284.367 91C283.299 91 282.526 90.5227 282.526 89.5909C282.526 88.5682 283.458 88.25 284.504 88.1136C285.072 88.0455 286.594 87.8864 286.822 87.6136V88.8409C286.822 89.9318 285.958 91 284.367 91ZM54.4368 116.182C56.3686 116.182 57.6413 115 57.8686 113.455H56.5277C56.2777 114.409 55.4822 114.977 54.4368 114.977C52.8459 114.977 51.8232 113.659 51.8232 111.636C51.8232 109.659 52.8686 108.364 54.4368 108.364C55.6186 108.364 56.3232 109.091 56.5277 109.886H57.8686C57.6413 108.25 56.255 107.159 54.4141 107.159C52.0504 107.159 50.4822 109.023 50.4822 111.682C50.4822 114.295 51.9822 116.182 54.4368 116.182ZM59.8288 116H61.1697V110.477C61.1697 109.295 62.1016 108.432 63.3743 108.432C63.7322 108.432 64.1016 108.5 64.1925 108.523V107.159C64.0391 107.148 63.6868 107.136 63.4879 107.136C62.4425 107.136 61.5334 107.727 61.2152 108.591H61.1243V107.273H59.8288V116ZM65.782 116H67.1229V107.273H65.782V116ZM66.4638 105.818C66.9865 105.818 67.4183 105.409 67.4183 104.909C67.4183 104.409 66.9865 104 66.4638 104C65.9411 104 65.5092 104.409 65.5092 104.909C65.5092 105.409 65.9411 105.818 66.4638 105.818ZM69.5788 119.273H70.9197V114.659H71.0334C71.3288 115.136 71.897 116.182 73.5788 116.182C75.7607 116.182 77.2834 114.432 77.2834 111.659C77.2834 108.909 75.7607 107.159 73.5561 107.159C71.8516 107.159 71.3288 108.205 71.0334 108.659H70.8743V107.273H69.5788V119.273ZM70.897 111.636C70.897 109.682 71.7607 108.364 73.397 108.364C75.1016 108.364 75.9425 109.795 75.9425 111.636C75.9425 113.5 75.0788 114.977 73.397 114.977C71.7834 114.977 70.897 113.614 70.897 111.636ZM83.1243 107.273H81.2607V105.182H79.9197V107.273H78.6016V108.409H79.9197V113.864C79.9197 115.386 81.147 116.114 82.2834 116.114C82.7834 116.114 83.1016 116.023 83.2834 115.955L83.0107 114.75C82.897 114.773 82.7152 114.818 82.4197 114.818C81.8288 114.818 81.2607 114.636 81.2607 113.5V108.409H83.1243V107.273ZM88.593 116.182C90.9567 116.182 92.5476 114.386 92.5476 111.682C92.5476 108.955 90.9567 107.159 88.593 107.159C86.2294 107.159 84.6385 108.955 84.6385 111.682C84.6385 114.386 86.2294 116.182 88.593 116.182ZM88.593 114.977C86.7976 114.977 85.9794 113.432 85.9794 111.682C85.9794 109.932 86.7976 108.364 88.593 108.364C90.3885 108.364 91.2067 109.932 91.2067 111.682C91.2067 113.432 90.3885 114.977 88.593 114.977ZM98.1172 119.455C100.208 119.455 101.89 118.5 101.89 116.25V107.273H100.594V108.659H100.458C100.163 108.205 99.6172 107.159 97.9126 107.159C95.7081 107.159 94.1854 108.909 94.1854 111.591C94.1854 114.318 95.7763 115.864 97.8899 115.864C99.5945 115.864 100.14 114.864 100.435 114.386H100.549V116.159C100.549 117.614 99.5263 118.273 98.1172 118.273C96.532 118.273 95.9751 117.438 95.6172 116.955L94.549 117.705C95.0945 118.619 96.1683 119.455 98.1172 119.455ZM98.0717 114.659C96.3899 114.659 95.5263 113.386 95.5263 111.568C95.5263 109.795 96.3672 108.364 98.0717 108.364C99.7081 108.364 100.572 109.682 100.572 111.568C100.572 113.5 99.6854 114.659 98.0717 114.659ZM104.344 116H105.685V110.477C105.685 109.295 106.617 108.432 107.89 108.432C108.248 108.432 108.617 108.5 108.708 108.523V107.159C108.555 107.148 108.202 107.136 108.004 107.136C106.958 107.136 106.049 107.727 105.731 108.591H105.64V107.273H104.344V116ZM112.866 116.205C114.388 116.205 115.184 115.386 115.457 114.818H115.525V116H116.866V110.25C116.866 107.477 114.752 107.159 113.638 107.159C112.32 107.159 110.82 107.614 110.138 109.205L111.411 109.659C111.707 109.023 112.406 108.341 113.684 108.341C114.917 108.341 115.525 108.994 115.525 110.114V110.159C115.525 110.807 114.866 110.75 113.275 110.955C111.656 111.165 109.888 111.523 109.888 113.523C109.888 115.227 111.207 116.205 112.866 116.205ZM113.07 115C112.002 115 111.229 114.523 111.229 113.591C111.229 112.568 112.161 112.25 113.207 112.114C113.775 112.045 115.298 111.886 115.525 111.614V112.841C115.525 113.932 114.661 115 113.07 115ZM123.2 107.273H121.245V106.386C121.245 105.523 121.609 105.068 122.495 105.068C122.881 105.068 123.109 105.159 123.245 105.205L123.631 104.045C123.427 103.955 123.018 103.818 122.359 103.818C121.109 103.818 119.904 104.568 119.904 106.068V107.273H118.495V108.409H119.904V116H121.245V108.409H123.2V107.273ZM127.397 116.205C128.92 116.205 129.715 115.386 129.988 114.818H130.056V116H131.397V110.25C131.397 107.477 129.283 107.159 128.17 107.159C126.852 107.159 125.352 107.614 124.67 109.205L125.942 109.659C126.238 109.023 126.937 108.341 128.215 108.341C129.448 108.341 130.056 108.994 130.056 110.114V110.159C130.056 110.807 129.397 110.75 127.806 110.955C126.187 111.165 124.42 111.523 124.42 113.523C124.42 115.227 125.738 116.205 127.397 116.205ZM127.602 115C126.533 115 125.761 114.523 125.761 113.591C125.761 112.568 126.692 112.25 127.738 112.114C128.306 112.045 129.829 111.886 130.056 111.614V112.841C130.056 113.932 129.192 115 127.602 115ZM133.844 116H135.185V110.477C135.185 109.295 136.117 108.432 137.39 108.432C137.748 108.432 138.117 108.5 138.208 108.523V107.159C138.055 107.148 137.702 107.136 137.504 107.136C136.458 107.136 135.549 107.727 135.231 108.591H135.14V107.273H133.844V116ZM147.843 116.182C150.207 116.182 151.798 114.386 151.798 111.682C151.798 108.955 150.207 107.159 147.843 107.159C145.479 107.159 143.888 108.955 143.888 111.682C143.888 114.386 145.479 116.182 147.843 116.182ZM147.843 114.977C146.048 114.977 145.229 113.432 145.229 111.682C145.229 109.932 146.048 108.364 147.843 108.364C149.638 108.364 150.457 109.932 150.457 111.682C150.457 113.432 149.638 114.977 147.843 114.977ZM159.344 112.432C159.344 114.068 158.094 114.818 157.094 114.818C155.981 114.818 155.185 114 155.185 112.727V107.273H153.844V112.818C153.844 115.045 155.026 116.114 156.663 116.114C157.981 116.114 158.844 115.409 159.254 114.523H159.344V116H160.685V107.273H159.344V112.432ZM170.937 116.182C172.619 116.182 173.187 115.136 173.482 114.659H173.641V116H174.937V104.364H173.596V108.659H173.482C173.187 108.205 172.664 107.159 170.96 107.159C168.755 107.159 167.232 108.909 167.232 111.659C167.232 114.432 168.755 116.182 170.937 116.182ZM171.119 114.977C169.437 114.977 168.573 113.5 168.573 111.636C168.573 109.795 169.414 108.364 171.119 108.364C172.755 108.364 173.619 109.682 173.619 111.636C173.619 113.614 172.732 114.977 171.119 114.977ZM181.238 116.182C183.011 116.182 184.306 115.295 184.715 113.977L183.42 113.614C183.079 114.523 182.289 114.977 181.238 114.977C179.664 114.977 178.579 113.96 178.516 112.091H184.852V111.523C184.852 108.273 182.92 107.159 181.102 107.159C178.738 107.159 177.17 109.023 177.17 111.705C177.17 114.386 178.715 116.182 181.238 116.182ZM178.516 110.932C178.607 109.574 179.567 108.364 181.102 108.364C182.556 108.364 183.488 109.455 183.488 110.932H178.516ZM193.073 109.227C192.653 107.989 191.71 107.159 189.982 107.159C188.141 107.159 186.778 108.205 186.778 109.682C186.778 110.886 187.494 111.693 189.096 112.068L190.55 112.409C191.431 112.614 191.846 113.034 191.846 113.636C191.846 114.386 191.05 115 189.8 115C188.704 115 188.016 114.528 187.778 113.591L186.505 113.909C186.817 115.392 188.039 116.182 189.823 116.182C191.852 116.182 193.232 115.074 193.232 113.568C193.232 112.352 192.471 111.585 190.914 111.205L189.619 110.886C188.585 110.631 188.119 110.284 188.119 109.614C188.119 108.864 188.914 108.318 189.982 108.318C191.153 108.318 191.636 108.966 191.869 109.568L193.073 109.227ZM198.796 116.182C200.728 116.182 202.001 115 202.228 113.455H200.887C200.637 114.409 199.842 114.977 198.796 114.977C197.205 114.977 196.183 113.659 196.183 111.636C196.183 109.659 197.228 108.364 198.796 108.364C199.978 108.364 200.683 109.091 200.887 109.886H202.228C202.001 108.25 200.614 107.159 198.773 107.159C196.41 107.159 194.842 109.023 194.842 111.682C194.842 114.295 196.342 116.182 198.796 116.182ZM204.188 116H205.529V110.477C205.529 109.295 206.461 108.432 207.734 108.432C208.092 108.432 208.461 108.5 208.552 108.523V107.159C208.398 107.148 208.046 107.136 207.847 107.136C206.802 107.136 205.893 107.727 205.575 108.591H205.484V107.273H204.188V116ZM210.141 116H211.482V107.273H210.141V116ZM210.823 105.818C211.346 105.818 211.778 105.409 211.778 104.909C211.778 104.409 211.346 104 210.823 104C210.3 104 209.869 104.409 209.869 104.909C209.869 105.409 210.3 105.818 210.823 105.818ZM213.938 119.273H215.279V114.659H215.393C215.688 115.136 216.256 116.182 217.938 116.182C220.12 116.182 221.643 114.432 221.643 111.659C221.643 108.909 220.12 107.159 217.915 107.159C216.211 107.159 215.688 108.205 215.393 108.659H215.234V107.273H213.938V119.273ZM215.256 111.636C215.256 109.682 216.12 108.364 217.756 108.364C219.461 108.364 220.302 109.795 220.302 111.636C220.302 113.5 219.438 114.977 217.756 114.977C216.143 114.977 215.256 113.614 215.256 111.636ZM227.484 107.273H225.62V105.182H224.279V107.273H222.961V108.409H224.279V113.864C224.279 115.386 225.506 116.114 226.643 116.114C227.143 116.114 227.461 116.023 227.643 115.955L227.37 114.75C227.256 114.773 227.075 114.818 226.779 114.818C226.188 114.818 225.62 114.636 225.62 113.5V108.409H227.484V107.273ZM232.952 116.182C235.316 116.182 236.907 114.386 236.907 111.682C236.907 108.955 235.316 107.159 232.952 107.159C230.589 107.159 228.998 108.955 228.998 111.682C228.998 114.386 230.589 116.182 232.952 116.182ZM232.952 114.977C231.157 114.977 230.339 113.432 230.339 111.682C230.339 109.932 231.157 108.364 232.952 108.364C234.748 108.364 235.566 109.932 235.566 111.682C235.566 113.432 234.748 114.977 232.952 114.977ZM242.477 119.455C244.567 119.455 246.249 118.5 246.249 116.25V107.273H244.954V108.659H244.817C244.522 108.205 243.977 107.159 242.272 107.159C240.067 107.159 238.545 108.909 238.545 111.591C238.545 114.318 240.136 115.864 242.249 115.864C243.954 115.864 244.499 114.864 244.795 114.386H244.908V116.159C244.908 117.614 243.886 118.273 242.477 118.273C240.891 118.273 240.335 117.438 239.977 116.955L238.908 117.705C239.454 118.619 240.528 119.455 242.477 119.455ZM242.431 114.659C240.749 114.659 239.886 113.386 239.886 111.568C239.886 109.795 240.727 108.364 242.431 108.364C244.067 108.364 244.931 109.682 244.931 111.568C244.931 113.5 244.045 114.659 242.431 114.659ZM248.704 116H250.045V110.477C250.045 109.295 250.977 108.432 252.249 108.432C252.607 108.432 252.977 108.5 253.067 108.523V107.159C252.914 107.148 252.562 107.136 252.363 107.136C251.317 107.136 250.408 107.727 250.09 108.591H249.999V107.273H248.704V116ZM257.225 116.205C258.748 116.205 259.543 115.386 259.816 114.818H259.884V116H261.225V110.25C261.225 107.477 259.112 107.159 257.998 107.159C256.68 107.159 255.18 107.614 254.498 109.205L255.771 109.659C256.066 109.023 256.765 108.341 258.043 108.341C259.276 108.341 259.884 108.994 259.884 110.114V110.159C259.884 110.807 259.225 110.75 257.634 110.955C256.015 111.165 254.248 111.523 254.248 113.523C254.248 115.227 255.566 116.205 257.225 116.205ZM257.43 115C256.362 115 255.589 114.523 255.589 113.591C255.589 112.568 256.521 112.25 257.566 112.114C258.134 112.045 259.657 111.886 259.884 111.614V112.841C259.884 113.932 259.021 115 257.43 115ZM267.559 107.273H265.604V106.386C265.604 105.523 265.968 105.068 266.854 105.068C267.241 105.068 267.468 105.159 267.604 105.205L267.991 104.045C267.786 103.955 267.377 103.818 266.718 103.818C265.468 103.818 264.263 104.568 264.263 106.068V107.273H262.854V108.409H264.263V116H265.604V108.409H267.559V107.273ZM271.756 116.205C273.279 116.205 274.075 115.386 274.347 114.818H274.415V116H275.756V110.25C275.756 107.477 273.643 107.159 272.529 107.159C271.211 107.159 269.711 107.614 269.029 109.205L270.302 109.659C270.597 109.023 271.296 108.341 272.575 108.341C273.808 108.341 274.415 108.994 274.415 110.114V110.159C274.415 110.807 273.756 110.75 272.165 110.955C270.546 111.165 268.779 111.523 268.779 113.523C268.779 115.227 270.097 116.205 271.756 116.205ZM271.961 115C270.893 115 270.12 114.523 270.12 113.591C270.12 112.568 271.052 112.25 272.097 112.114C272.665 112.045 274.188 111.886 274.415 111.614V112.841C274.415 113.932 273.552 115 271.961 115ZM278.204 116H279.545V110.477C279.545 109.295 280.477 108.432 281.749 108.432C282.107 108.432 282.477 108.5 282.567 108.523V107.159C282.414 107.148 282.062 107.136 281.863 107.136C280.817 107.136 279.908 107.727 279.59 108.591H279.499V107.273H278.204V116ZM284.134 116.091C284.697 116.091 285.157 115.631 285.157 115.068C285.157 114.506 284.697 114.045 284.134 114.045C283.572 114.045 283.112 114.506 283.112 115.068C283.112 115.631 283.572 116.091 284.134 116.091Z" fill="#495057"/>
</svg>
